<?xml version="1.0"?>
<svg xmlns="http://www.w3.org/2000/svg" viewBox="0 0 50 50">
    <path d="M 25 1 C 19.486 1 15 5.486 15 11 C 15 16.514 19.486 21 25 21 C 30.514 21 35 16.514 35 11 C 35 5.486 30.514 1 25 1 z M 25 5 C 25.552 5 26 5.447 26 6 C 26 6.553 25.552 7 25 7 C 22.794 7 21 8.794 21 11 C 21 11.553 20.552 12 20 12 C 19.448 12 19 11.553 19 11 C 19 7.691 21.691 5 25 5 z M 22 22.605469 L 22 43.244141 L 25 48.990234 L 28 43.244141 L 28 22.605469 C 27.039 22.854469 26.037 23 25 23 C 23.963 23 22.961 22.854469 22 22.605469 z"/>
</svg>
