<?xml version="1.0" encoding="UTF-8" standalone="no"?>
<svg
   xmlns:dc="http://purl.org/dc/elements/1.1/"
   xmlns:cc="http://creativecommons.org/ns#"
   xmlns:rdf="http://www.w3.org/1999/02/22-rdf-syntax-ns#"
   xmlns:svg="http://www.w3.org/2000/svg"
   xmlns="http://www.w3.org/2000/svg"
   xmlns:sodipodi="http://sodipodi.sourceforge.net/DTD/sodipodi-0.dtd"
   xmlns:inkscape="http://www.inkscape.org/namespaces/inkscape"
   viewBox="0 0 50 50"
   version="1.1"
   id="svg3711"
   sodipodi:docname="MapPin.svg"
   inkscape:version="0.92.2 (5c3e80d, 2017-08-06)">
  <metadata
     id="metadata3717">
    <rdf:RDF>
      <cc:Work
         rdf:about="">
        <dc:format>image/svg+xml</dc:format>
        <dc:type
           rdf:resource="http://purl.org/dc/dcmitype/StillImage" />
      </cc:Work>
    </rdf:RDF>
  </metadata>
  <defs
     id="defs3715" />
  <sodipodi:namedview
     pagecolor="#ffffff"
     bordercolor="#666666"
     borderopacity="1"
     objecttolerance="10"
     gridtolerance="10"
     guidetolerance="10"
     inkscape:pageopacity="0"
     inkscape:pageshadow="2"
     inkscape:window-width="2736"
     inkscape:window-height="1699"
     id="namedview3713"
     showgrid="false"
     inkscape:zoom="27.84"
     inkscape:cx="25"
     inkscape:cy="25"
     inkscape:window-x="-13"
     inkscape:window-y="-13"
     inkscape:window-maximized="1"
     inkscape:current-layer="svg3711" />
  <path
     d="M 25 1 C 19.486 1 15 5.486 15 11 C 15 16.514 19.486 21 25 21 C 30.514 21 35 16.514 35 11 C 35 5.486 30.514 1 25 1 z M 25 5 C 25.552 5 26 5.447 26 6 C 26 6.553 25.552 7 25 7 C 22.794 7 21 8.794 21 11 C 21 11.553 20.552 12 20 12 C 19.448 12 19 11.553 19 11 C 19 7.691 21.691 5 25 5 z M 22 22.605469 L 22 43.244141 L 25 48.990234 L 28 43.244141 L 28 22.605469 C 27.039 22.854469 26.037 23 25 23 C 23.963 23 22.961 22.854469 22 22.605469 z"
     id="path3709"
     style="fill:#ffffff" />
</svg>
